<svg width="51" height="55" viewBox="0 0 51 55" fill="none" xmlns="http://www.w3.org/2000/svg">
<g clip-path="url(#clip0_1830_2941)">
<path d="M7.14985 48.2092C7.06878 47.9507 6.83202 47.3697 6.76753 46.9407C6.6252 45.9905 7.12176 45.3648 7.57778 45.2215C8.08953 45.0787 8.28944 45.3358 8.48751 45.9334C8.74362 46.8435 8.77218 48.036 8.68604 49.7432C8.57411 52.0752 7.4078 54.8915 4.50862 54.833C2.00604 54.7782 0.898694 53.1567 0.783537 50.6827C0.729183 49.5165 0.812557 48.3507 1.29529 46.702C1.5514 45.8191 1.77987 45.5049 2.57445 45.3358C3.19906 45.2215 3.14287 45.8749 3.00145 46.6453C2.69007 48.3507 2.54543 49.1741 2.66059 51.1089C2.77206 53.1567 3.7122 53.9534 4.73571 53.9534C6.27098 53.9828 6.95271 52.7033 7.23829 50.8527C7.46354 49.3745 7.29357 48.6636 7.14985 48.2092ZM39.8838 50.2288C40.4817 50.2288 40.6531 50.9361 40.5103 51.3647C40.3675 51.7904 39.8566 52.2761 39.0611 52.4176C38.8898 51.99 38.8041 50.2288 39.8838 50.2288ZM28.7707 51.1928C28.7707 50.7113 28.5132 50.3127 28.2032 50.3127C27.9444 50.3127 27.3497 50.5961 27.3497 51.5066C27.3497 52.2199 27.603 52.5581 27.7191 52.7033C28.5413 52.4461 28.7707 51.7619 28.7707 51.1928ZM19.9276 45.3925C19.8876 44.9363 19.5301 44.6257 19.0465 44.6257C18.5071 44.6257 17.999 45.192 18.0529 45.9035C18.0874 46.3725 18.3638 46.7582 18.9069 46.7582C19.5301 46.7587 19.9847 46.0477 19.9276 45.3925ZM24.5509 47.0628C24.5016 46.2675 24.3091 45.9085 23.8821 45.938C23.316 45.9721 23.0544 47.754 23.17 49.6271C23.2437 50.8491 23.4256 51.0375 23.5951 51.0255C23.9084 51.0066 24.6596 48.8235 24.5509 47.0628ZM43.4094 50.0565C43.0571 51.5186 41.9889 53.6695 40.3951 53.6695C40.0261 53.6695 39.3721 53.5262 39.3721 53.1567C39.3721 52.7581 41.8756 52.7032 41.8756 50.7965C41.8756 50.0865 41.2219 49.0898 40.2546 49.0898C38.9755 49.0898 37.7276 50.4846 37.7276 52.418C37.7276 54.1515 38.8041 54.7206 39.8843 54.7206C41.7613 54.7206 42.8986 53.1838 43.4951 51.9052C43.7807 52.7585 43.9484 54.7206 44.6619 54.7206C44.9452 54.7206 45.1455 54.5782 45.4869 53.8114C46.3376 51.9047 47.1631 49.7151 48.3008 49.7151C48.726 49.7151 48.4713 50.4846 49.4943 50.4846C49.9766 50.4846 50.3165 50.0865 50.3165 49.6294C50.3165 48.9746 49.7205 48.4645 48.8117 48.4645C46.1387 48.4645 45.5721 52.4747 45.1451 52.4747C44.4339 52.4747 44.6614 49.2607 44.1487 49.2607C43.6936 49.2603 43.4702 49.8026 43.4094 50.0565ZM20.6674 53.4686C21.0935 53.4686 21.8263 53.3304 22.403 52.4065C22.0732 51.6739 21.8378 50.1934 21.8051 49.6542C21.6356 46.8974 22.6974 44.3041 23.8595 44.2322C24.7117 44.1806 25.3934 44.9874 25.4717 46.2947C25.6813 49.7298 24.5376 51.1638 23.965 52.401C24.0618 52.8807 24.8752 53.6972 25.6426 53.6972C25.9259 53.6972 26.2686 53.5548 26.3547 53.4396C26.2976 53.2419 26.2396 52.9862 26.2396 52.6152C26.2396 50.6247 27.5192 48.946 28.6284 48.946C29.5096 48.946 30.0213 50.1118 30.0213 50.8813C30.0213 51.79 29.253 52.5309 28.1166 53.2419C28.3166 53.4396 28.6841 53.5834 28.9983 53.5834C30.6201 53.5834 31.4686 51.6204 32.0969 49.828C32.2102 49.4861 32.4106 49.0036 32.8077 49.0036C33.4899 49.0036 33.7754 53.4972 34.9095 53.4972C35.3945 53.4972 35.7916 52.501 35.7916 51.7351C35.7916 51.1656 35.5926 51.1085 35.5926 50.2837C35.5926 49.3745 36.0763 48.6073 36.7317 48.6073C37.1293 48.6073 37.273 49.0036 37.273 49.4861C37.273 51.3066 35.9634 54.6915 34.0329 54.6915C32.5806 54.6915 32.6939 52.1886 32.1826 52.1886C31.6114 52.1886 30.8155 54.7196 28.0038 54.7196C27.5469 54.7196 27.0646 54.4925 26.6675 54.0363C25.9862 54.4925 25.416 54.6915 24.7619 54.6915C23.7112 54.6915 23.2552 53.6105 22.83 53.6105C22.3174 53.6105 21.7503 54.7196 20.0428 54.7196C18.6784 54.7196 18.4509 52.9014 17.9686 52.9014C17.5411 52.9014 16.8875 54.7196 16.1772 54.7196C14.9814 54.7196 14.7281 51.5637 13.6742 51.5637C12.8501 51.5637 10.2453 54.7689 9.5382 54.6957C9.25399 54.6662 9.13423 54.4538 9.16417 54.169C9.20425 53.7755 9.54281 52.7221 9.68007 52.224C9.90993 51.3591 10.1209 50.4113 10.2388 50.109C10.3558 49.804 10.6713 49.5865 10.9247 49.61C11.0523 49.622 11.0905 49.8602 11.1301 50.057C11.2738 50.7601 11.4742 51.4771 11.7004 51.4771C12.0997 51.4771 13.4185 48.9456 14.1859 48.9456C15.1256 48.9456 15.238 52.9281 16.5167 52.9281C16.9442 52.9281 17.2578 52.4171 17.5411 51.7895C17.5701 50.7357 17.8544 49.2317 18.707 49.2317C19.3044 49.2317 19.5891 50.5671 19.1611 51.7347C19.1602 53.1272 20.069 53.4686 20.6674 53.4686Z" fill="#14213D"/>
<path d="M40.4687 8.8719C40.2577 8.8719 39.9555 8.8719 39.7892 8.5406C39.6529 8.26874 39.699 7.83053 39.4424 7.6347C39.699 7.70981 39.9703 7.70981 40.1812 7.70981C40.8611 7.70981 41.5106 7.24211 42.009 7.24211C42.3374 7.24211 42.4434 7.45361 42.4434 7.66419C42.4438 8.3291 41.1034 8.8719 40.4687 8.8719ZM40.8003 10.5773C42.3678 10.5773 43.8031 9.32485 43.8031 8.22358C43.8031 7.70981 43.5608 7.28773 42.9422 7.21216C43.0477 7.34809 43.0928 7.45361 43.0928 7.69506C43.0928 8.52539 41.8284 9.44604 40.4539 9.44604C39.9555 9.44604 39.8044 9.79255 39.8044 9.97364C39.8044 10.3966 40.2125 10.5773 40.8003 10.5773ZM40.6801 11.2113C40.8768 12.6443 43.0477 14.5764 43.6359 14.5308C44.0293 14.4976 44.1799 12.6595 44.1799 11.2113C44.1799 10.3814 44.2255 9.73219 43.7875 9.58105C43.0924 10.9851 41.2692 11.2717 40.6801 11.2113Z" fill="#14213D"/>
<path d="M6.72546 20.7032C7.23768 20.7032 7.1322 17.5638 7.96178 17.5638C8.15847 17.5638 8.21881 17.7601 8.21881 18.0016C8.21881 18.7107 7.8715 19.7526 7.8715 20.3253C7.8715 20.6124 7.94704 20.7032 8.08293 20.7032C8.44544 20.7032 9.0788 17.2468 9.69696 17.2468C9.89319 17.2468 9.98347 17.4431 9.98347 17.6394C9.98347 18.3638 9.06406 20.4461 9.06406 21.0345C9.06406 21.1252 9.09354 21.2004 9.16955 21.2004C9.5468 21.2004 10.3008 19.571 10.5418 18.7564C10.6776 18.3334 10.8587 18.1066 11.0249 18.1066C11.1756 18.1066 11.3119 18.273 11.3119 18.6204C11.3119 19.4351 10.557 21.3515 9.89319 22.6348C9.38097 23.6305 8.58133 25.0631 8.58133 25.863C8.58133 26.2708 8.65549 26.6929 9.24417 27.2062C8.27869 27.1459 7.8867 27.0555 7.52511 26.3012C5.91061 29.5152 10.4966 29.1986 8.92772 32.0495C8.64075 31.5376 6.37861 31.0091 6.37861 28.0213C6.37861 25.441 8.64075 23.9319 8.64075 22.861C8.64075 22.65 8.56613 22.4689 8.3699 22.303C7.8715 21.8796 7.8563 21.5335 7.46431 21.5335C7.17826 21.5335 6.83002 22.197 7.19254 22.7855C7.31368 22.9817 7.41917 23.1025 7.41917 23.2836C7.41917 23.7056 6.75494 24.8369 6.28787 24.8369C5.81987 24.8369 5.45874 23.6766 5.45874 21.8044C5.45874 20.1438 5.83507 18.4697 6.30307 18.4697C6.43849 18.4697 6.48363 18.5601 6.48363 18.6812C6.48363 18.8775 6.42375 19.2692 6.42375 19.9332C6.42375 20.6423 6.58958 20.7032 6.72546 20.7032Z" fill="#14213D"/>
<path d="M10.5714 25.1238C11.2057 25.1238 11.7331 24.6552 11.7331 23.6157V22.0757C11.7331 21.4873 11.7787 20.8238 12.1712 20.3552C12.1256 20.5519 12.1256 20.763 12.1256 20.9592C12.1256 22.2573 12.8492 23.148 12.8492 24.3999C12.8492 24.8672 12.7133 25.1243 12.3522 25.1243C12.0049 25.1243 12.0353 24.8073 11.9593 24.8073C11.8994 24.8073 11.8087 25.0031 11.8087 25.2146C11.8087 25.5316 12.0348 26.0293 12.6682 26.0293C13.2117 26.0293 13.6484 25.5316 13.6484 24.9731C13.6484 23.6161 12.5926 22.1061 12.5926 20.6579C12.5926 20.0239 12.7585 19.6018 12.8944 19.2691C12.8944 22.2725 15.4435 24.4603 15.4435 25.7122C15.4435 25.9993 15.2325 26.226 14.9156 26.226C14.5687 26.226 14.4024 25.9537 14.4024 25.7422C14.4024 25.6367 14.3872 25.6067 14.3421 25.6067C14.2523 25.6067 13.9805 25.9085 13.9805 26.3016C13.9805 26.7988 14.3872 27.4033 15.1417 27.4033C16.0008 27.4033 16.4688 26.678 16.4688 26.0293C16.4688 24.4455 13.3766 22.0458 13.3766 19.481C13.3766 19.0428 13.4512 18.3337 13.7691 17.7909C11.7778 19.0728 11.1596 20.7786 11.1596 22.2725C11.1596 23.5705 11.1145 24.2184 10.4507 24.2184C10.1034 24.2184 10.0131 23.9023 9.89199 23.9023C9.80171 23.9023 9.7561 24.1737 9.7561 24.2488C9.75702 24.8068 10.1647 25.1238 10.5714 25.1238Z" fill="#14213D"/>
<path d="M33.4252 8.13291C33.6168 8.00435 34.4672 8.20802 35.5667 7.66429C35.7021 7.5901 35.838 7.55969 35.9587 7.55969C36.4875 7.55969 36.3516 8.16286 36.8348 8.16286C37.2111 8.16286 37.6952 7.84584 37.9822 7.84584C38.4318 7.84584 39.0808 9.2646 39.0808 9.92859C39.0808 10.6981 37.9214 11.1663 36.5478 11.1663C34.5427 11.1663 33.3345 9.41573 33.3345 8.28358C33.3349 8.19327 33.3805 8.16286 33.4252 8.13291ZM36.7141 10.0493C37.3783 10.0493 37.8763 9.7475 37.8763 9.56595C37.8763 9.50651 37.786 9.46089 37.5893 9.46089C37.3931 9.46089 37.0006 9.44614 36.2608 9.32496C35.6261 9.21944 35.1434 8.97799 34.9623 8.97799C34.902 8.97799 34.8716 9.00794 34.8716 9.05309C34.8716 9.44614 35.5966 10.0493 36.7141 10.0493Z" fill="#14213D"/>
<path d="M10.8886 30.8126C10.3912 30.9338 9.59106 31.7171 9.59106 32.9561C9.59106 34.4339 11.1752 36.7134 13.7846 36.7134C15.9864 36.7134 16.5299 35.1891 16.5299 34.162C16.5299 31.8839 15.1278 30.2841 13.3028 30.2841C12.3069 30.2841 11.4165 31.0084 11.4165 32.0793C11.4165 33.0764 12.171 34.5698 13.9656 34.5698C14.8104 34.5698 15.3079 33.9653 15.3079 33.2732C15.3079 32.5935 14.6897 31.6586 13.7841 31.6586C13.5128 31.6586 13.3171 31.8378 13.3171 32.1258C13.3171 32.4871 13.8141 32.8502 14.4332 32.8502C14.5833 32.8502 14.7045 32.8198 14.7653 32.7893C14.7948 32.8359 14.8104 32.9105 14.8104 32.9709C14.8104 33.3183 14.4783 33.5298 13.9656 33.5298C13.1964 33.5298 12.4571 32.9566 12.4571 32.0493C12.4571 31.5074 12.9251 31.1153 13.6036 31.1153C14.9458 31.1153 15.745 32.3069 15.745 33.4999C15.745 34.5703 15.1577 35.19 13.9504 35.19C11.5368 35.1896 10.3612 33.0161 10.8886 30.8126Z" fill="#14213D"/>
<path d="M28.1078 39.654C28.8315 39.654 28.7937 39.5937 29.0203 39.5937C29.246 39.5937 29.2617 39.7296 29.2617 39.8204C29.2617 40.1526 28.5219 40.5599 27.2096 40.5599C26.4404 40.5599 25.9724 40.1521 25.8369 39.6996C25.0829 40.1825 23.9369 40.6203 22.8051 40.6203C19.7134 40.6203 18.9289 39.2762 17.963 38.8398C17.2237 38.5076 16.0924 39.1568 14.5083 37.3911C14.7197 37.4367 15.0067 37.4515 15.2329 37.4515C16.6198 37.4515 17.3591 36.7737 17.3591 35.6862C17.3591 35.5498 17.3439 35.4005 17.3287 35.265C17.7516 35.4309 18.7175 36.1544 18.9441 37.4367C18.9736 37.5879 19.5918 37.7233 19.9842 37.7233C20.5278 37.7233 21.2215 37.4966 21.327 36.6073C23.1372 36.4566 24.3597 35.3858 24.6163 34.026C25.2639 34.2375 26.0032 34.8259 26.1843 35.1287C26.4408 35.0383 26.7421 34.9927 27.0889 34.9927C27.5717 34.9927 28.1152 35.0835 28.7633 35.2798C28.7937 35.0835 28.8237 34.842 29.1258 34.842C29.5782 34.842 29.4575 35.3402 29.6086 35.6254C29.6841 35.7765 30.0618 35.8668 30.0618 36.1691C30.0618 36.4566 29.8191 36.5626 29.6684 36.5626C29.6081 36.5626 29.5326 36.5474 29.487 36.5327C29.1857 36.6382 29.17 38.8099 27.9033 38.8099C26.9687 38.8099 26.1087 38.0404 25.731 37.0755C25.6255 36.7889 25.3994 36.6073 25.1879 36.6073C24.947 36.6073 24.8111 36.6529 24.5251 36.97C23.7107 37.8593 22.3528 38.6288 20.6784 38.6288C20.1653 38.6288 19.7581 38.5827 19.6521 38.5827C19.5913 38.5827 19.5913 38.5979 19.5913 38.6127C19.5913 38.7186 20.104 39.1264 21.2206 39.1264C23.8756 39.1264 24.5246 37.6321 24.9466 37.6321C25.0078 37.6321 25.1875 37.6321 25.2929 37.874C25.9125 39.3218 27.263 39.654 28.1078 39.654ZM26.9383 36.6382C26.9383 36.9704 27.2101 37.2423 27.5422 37.2423C27.8743 37.2423 28.1456 36.9704 28.1456 36.6382C28.1456 36.3055 27.8743 36.0336 27.5422 36.0336C27.2101 36.0336 26.9383 36.3055 26.9383 36.6382Z" fill="#14213D"/>
<path d="M38.8852 29.1073C38.6738 29.1073 38.4476 29.2736 38.4476 29.6819C38.4476 30.133 38.7949 30.4205 38.9907 30.5104C39.0967 30.5716 39.2629 30.632 39.4274 30.632C39.8654 30.632 40.2132 30.5104 40.2132 30.1477C40.2128 29.6819 39.5329 29.1073 38.8852 29.1073ZM37.2578 30.0422C36.9409 30.0422 35.1887 32.3811 34.0597 32.3811C33.7884 32.3811 33.5618 31.8683 33.5618 31.4776C33.5618 31.2661 33.6972 31.1149 34.1813 31.0085C36.7751 30.4201 36.2012 28.4728 38.4168 28.4728C39.6384 28.4728 40.9981 29.304 40.9981 31.1744C40.9981 33.1663 38.1639 35.6403 37.741 35.6403C37.3937 35.6403 37.0165 35.1426 37.0165 34.8109C37.0165 34.7053 37.0621 34.5694 37.3638 34.4487C38.8101 33.8745 39.6388 32.547 39.6388 31.8674C39.6388 31.7162 39.5637 31.5669 39.3675 31.5669C39.1114 31.5669 38.0133 34.0708 36.7898 34.0708C35.9437 34.0708 35.0832 33.3032 35.0832 32.9401C35.0832 32.3355 37.5296 31.22 37.5296 30.374C37.5291 30.0565 37.3785 30.0422 37.2578 30.0422Z" fill="#14213D"/>
<path d="M7.40413 10.2608C7.40413 10.2608 6.967 10.5921 6.42392 10.5921C5.77582 10.5921 5.26268 10.1096 5.26268 9.43043C5.26268 8.96227 5.50405 8.47983 6.06187 8.23792C6.04713 8.32869 6.04713 8.4038 6.04713 8.49457C6.04667 9.35532 6.5294 10.0036 7.40413 10.2608ZM10.6322 13.1582C10.3006 13.5498 9.95324 14.2143 9.95324 14.893C9.95324 15.7077 10.4516 16.3864 11.2209 16.3864C11.9597 16.3864 12.307 15.7528 12.307 15.1045C12.307 14.0936 11.3867 13.3835 10.6322 13.1582ZM5.62473 13.7613C5.59618 13.8079 5.57913 13.8673 5.57913 13.9277C5.57913 14.0636 5.73022 14.2143 5.86518 14.2143C5.98587 14.2143 6.06141 14.1843 6.12175 14.1843C6.48334 14.1843 6.891 14.4405 7.47922 14.4405C7.82561 14.4405 8.23326 14.3346 8.74594 14.0788C9.8321 13.5351 10.255 12.1924 10.255 11.9657C10.255 11.6786 10.0246 11.7164 9.8321 11.4523C9.63955 11.1892 9.71325 10.9565 9.59073 10.8335C9.52117 10.763 9.30468 10.7584 9.03245 10.728C8.94171 10.7183 8.82102 10.7128 8.70034 10.7128C8.20332 10.7128 7.61326 10.7741 6.95088 11.1962C5.6427 12.0316 5.83524 13.4144 5.62473 13.7613ZM9.16925 11.8901C9.27382 12.0325 9.56217 12.2076 9.56217 12.3131C9.56217 12.5237 9.44056 12.796 9.19966 12.796C8.67132 12.796 8.24938 11.9961 8.24938 11.5427C8.24938 11.2565 8.41567 11.2266 8.64138 11.2266C8.74686 11.2266 8.79246 11.2418 8.86754 11.2869C9.00297 11.3625 9.00297 11.6638 9.16925 11.8901ZM7.78093 13.7314C7.28345 13.7314 6.74037 13.113 6.74037 12.5541C6.74037 12.2527 6.96654 11.8749 7.13236 11.8749C7.19271 11.8749 7.22311 11.9205 7.23785 12.0265C7.32813 12.7656 7.81133 13.1886 8.26412 13.3992C8.30927 13.4291 8.33967 13.4443 8.33967 13.4743C8.33967 13.5802 8.0527 13.7314 7.78093 13.7314ZM9.06377 9.92853C9.13885 9.68662 9.19919 9.38573 9.19919 9.05304C9.19919 8.32915 8.86662 7.22742 7.84127 7.22742C7.25351 7.22742 6.83019 7.69511 6.83019 8.25358C6.83019 9.44609 8.0223 9.92853 9.06377 9.92853ZM5.15674 15.9643C5.15674 17.1108 5.50405 17.6545 6.12221 17.6545C6.60495 17.6545 7.25351 17.3071 8.02229 16.6431C7.43454 16.779 6.98128 16.8698 6.57455 16.8698C6.03147 16.8698 5.60953 16.6583 5.15674 15.9643ZM5.68508 14.6212C5.67034 14.6972 5.67034 14.7723 5.67034 14.8474C5.67034 15.5566 6.04667 15.9491 6.54461 15.9491C6.92048 15.9491 7.35899 15.7229 7.75006 15.2243C7.58516 15.2543 7.38847 15.2695 7.20745 15.2695C6.65009 15.2695 6.04667 15.1193 5.68508 14.6212ZM9.38068 14.4101C9.03291 14.5004 8.30927 14.923 8.30927 15.6773C8.30927 16.2201 8.7312 16.568 9.25954 16.568C9.53131 16.568 9.72707 16.5071 9.84776 16.4168C9.42582 16.0095 9.27474 15.5566 9.27474 15.1045C9.27474 14.787 9.31988 14.5912 9.38068 14.4101ZM9.9233 10.2755C9.9233 10.6073 10.1946 10.8796 10.5263 10.8796C10.8584 10.8796 11.1301 10.6077 11.1301 10.2755C11.1301 9.94374 10.8584 9.67142 10.5263 9.67142C10.1946 9.67142 9.9233 9.94374 9.9233 10.2755ZM10.7073 11.6334C10.7073 11.9657 10.9795 12.2375 11.3121 12.2375C11.6433 12.2375 11.915 11.9657 11.915 11.6334C11.915 11.3021 11.6433 11.0303 11.3121 11.0303C10.9791 11.0303 10.7073 11.3021 10.7073 11.6334Z" fill="#14213D"/>
<path d="M34.2411 19.0424C34.2411 18.7411 34.5129 18.4844 34.8109 18.4844C35.1435 18.4844 35.4001 18.7411 35.4001 19.0424C35.4001 19.3894 35.143 19.6313 34.8109 19.6313C34.5129 19.6313 34.2411 19.3894 34.2411 19.0424ZM28.9448 14.395C28.9448 14.7267 29.2171 14.9986 29.5478 14.9986C29.8808 14.9986 30.1526 14.7267 30.1526 14.395C30.1526 14.0637 29.8804 13.7918 29.5478 13.7918C29.2171 13.7918 28.9448 14.0637 28.9448 14.395ZM28.4326 16.5224C28.4326 16.9906 28.8237 17.3822 29.2921 17.3822C29.7592 17.3822 30.1526 16.9906 30.1526 16.5224C30.1526 16.0552 29.7592 15.6621 29.2921 15.6621C28.8237 15.6621 28.4326 16.0552 28.4326 16.5224ZM30.3336 15.5566C30.3336 16.0704 30.7413 16.4772 31.2512 16.4772C31.7639 16.4772 32.1729 16.0704 32.1729 15.5566C32.1729 15.0437 31.7639 14.6364 31.2512 14.6364C30.7413 14.6364 30.3336 15.0437 30.3336 15.5566ZM30.4096 13.595C30.4096 13.9125 30.6662 14.1696 30.9799 14.1696C31.2968 14.1696 31.5534 13.9125 31.5534 13.595C31.5534 13.2789 31.2963 13.0223 30.9799 13.0223C30.6662 13.0223 30.4096 13.2789 30.4096 13.595ZM33.1388 12.1473C33.1388 12.4634 33.3954 12.72 33.7128 12.72C34.0297 12.72 34.2867 12.4634 34.2867 12.1473C34.2867 11.8298 34.0297 11.5731 33.7128 11.5731C33.3954 11.5731 33.1388 11.8298 33.1388 12.1473ZM32.0066 14.0033C32.0066 14.5309 32.4442 14.9682 32.9726 14.9682C33.5014 14.9682 33.9394 14.5309 33.9394 14.0033C33.9394 13.4743 33.5018 13.0375 32.9726 13.0375C32.4442 13.0375 32.0066 13.4743 32.0066 14.0033ZM30.4543 17.5338C30.4543 17.8661 30.7261 18.137 31.0554 18.137C31.3875 18.137 31.6598 17.8661 31.6598 17.5338C31.6598 17.2016 31.3875 16.9302 31.0554 16.9302C30.7261 16.9302 30.4543 17.2016 30.4543 17.5338ZM32.4295 16.3261C32.4295 16.6583 32.7008 16.9302 33.0338 16.9302C33.3655 16.9302 33.6372 16.6583 33.6372 16.3261C33.6372 15.9948 33.3655 15.7229 33.0338 15.7229C32.7008 15.7229 32.4295 15.9948 32.4295 16.3261ZM31.8712 18.454C31.8712 19.0272 32.3387 19.4954 32.9127 19.4954C33.4862 19.4954 33.9551 19.0272 33.9551 18.454C33.9551 17.8808 33.4862 17.4126 32.9127 17.4126C32.3387 17.4126 31.8712 17.8808 31.8712 18.454ZM34.0444 17.1707C34.0444 17.5638 34.3618 17.8808 34.7515 17.8808C35.1439 17.8808 35.4609 17.5638 35.4609 17.1707C35.4609 16.7791 35.1439 16.462 34.7515 16.462C34.3618 16.462 34.0444 16.7791 34.0444 17.1707ZM33.9993 15.2695C33.9993 15.6174 34.2867 15.904 34.6299 15.904C34.9777 15.904 35.2646 15.6174 35.2646 15.2695C35.2646 14.923 34.9777 14.6364 34.6299 14.6364C34.2867 14.6364 33.9993 14.923 33.9993 15.2695Z" fill="#14213D"/>
<path d="M35.536 35.0685C35.1435 35.3708 34.226 36.0486 32.7008 36.0486C31.886 36.0486 31.5235 35.7919 31.4028 35.7919C31.2517 35.7919 31.0859 35.9426 30.9196 36.1393C30.5612 36.5623 30.0928 37.3471 30.0928 38.2064C30.0928 38.8096 30.5612 39.4123 31.4327 39.4123C34.2564 39.4123 36.3665 37.6475 36.3665 36.2149C36.3665 35.4007 35.8838 35.0685 35.536 35.0685ZM34.7515 34.9026C34.8736 34.7985 34.9022 34.6312 34.9022 34.4644V34.1174C34.9022 33.6792 34.2412 33.424 33.3351 33.424C32.2328 33.424 31.6442 33.9207 31.6442 34.1326V34.8266C31.6442 35.1141 32.3088 35.4007 33.1242 35.4007C33.7732 35.4007 34.3619 35.2348 34.7515 34.9026ZM34.6299 36.3965C34.7059 36.3965 34.7958 36.4412 34.7958 36.7135C34.7958 37.0448 34.6456 37.4821 34.1048 37.8286C33.7276 38.0862 33.214 38.2977 32.4595 38.311C32.5802 37.9502 32.6709 37.5719 32.6709 37.2116C32.6709 37.0904 32.6562 36.9996 32.641 36.8642H32.8372C34.0297 36.8646 34.5433 36.3965 34.6299 36.3965Z" fill="#14213D"/>
<path d="M28.8691 17.9568C29.0349 19.2387 30.7563 18.5899 30.7563 20.1437C30.7563 20.3704 30.6959 20.7031 30.6959 20.9892C30.6959 21.3214 30.7254 21.608 30.9797 21.608C31.2358 21.608 31.2966 21.4274 31.2966 21.1855C31.2966 20.9436 31.2358 20.6422 31.2358 20.4764C31.2358 19.9478 31.6135 19.8276 31.8406 19.8276C32.4141 19.8276 32.8517 20.416 33.7126 20.416C33.5159 21.3818 31.5232 21.1251 31.5232 22.1817C31.5232 22.7102 32.0515 22.83 32.3989 22.83C32.7158 22.83 32.8217 22.7849 32.8217 22.5139C32.8217 22.3623 32.7913 22.1965 32.7913 22.0909C32.7913 22.0301 32.8369 21.9698 32.9125 21.9698C33.2455 21.9698 34.8715 23.2074 34.8715 23.5853C34.8715 23.9318 33.1538 24.2787 32.6559 24.2787C32.5048 24.2787 32.4744 24.1732 32.4744 24.1129C32.4744 24.0073 32.731 23.6903 32.731 23.5097C32.731 23.3738 32.5048 23.283 31.9005 23.283C31.6135 23.283 31.4021 23.3134 31.4021 23.5401C31.4021 23.9465 32.0663 24.4451 32.0663 24.8216C32.0663 25.1238 31.8853 25.3049 31.4021 25.3049C30.9944 25.3049 30.3781 24.9874 30.3781 24.4598C30.3781 24.0373 30.8134 23.6157 30.8134 23.3586C30.8134 23.283 30.7558 23.1623 30.5748 23.1623C30.0156 23.1623 29.8649 24.6405 27.8879 24.8068C28.2049 24.5202 28.4757 24.2032 28.4757 23.5553C28.4757 23.2383 28.4011 22.9812 28.4011 22.6347C28.4011 22.1817 28.6116 21.955 28.9133 21.955C29.4711 21.955 29.7429 22.7393 30.1063 22.7393C30.303 22.7393 30.514 22.5591 30.514 22.2872C30.514 21.1403 28.3108 21.3062 28.3108 19.6916C28.3113 19.2539 28.4614 18.7106 28.8691 17.9568ZM36.0641 22.378C36.0641 22.7545 36.1857 23.1922 36.5629 23.1922C36.8798 23.1922 37.1511 22.7102 37.1511 22.1817C37.1511 21.5781 37.0457 21.1099 37.0457 20.868C37.0457 20.763 37.0913 20.7178 37.1511 20.7178C37.3778 20.733 37.5887 21.3514 37.831 21.3514C38.1028 21.3514 38.5077 20.8528 38.673 20.8528C38.7186 20.8528 38.7334 20.9136 38.7334 20.9284C38.7334 21.1551 38.3861 21.6537 38.3861 21.8495C38.3861 22.0154 39.2617 22.0453 39.2617 22.1965C39.2617 22.4232 38.3437 22.4232 37.9066 22.6195C37.4842 22.8001 37.2262 23.0263 37.2262 23.3286C37.2262 23.6304 37.5284 23.6903 37.9512 23.6903C38.9591 23.6903 39.6685 23.1475 39.8946 23.1475C39.9398 23.1475 39.9697 23.177 39.9697 23.2226C39.9697 23.3738 39.457 23.8714 39.457 24.0981C39.457 24.3543 40.393 24.6552 40.3778 24.8068C40.3631 24.852 40.3023 24.8667 40.1968 24.8667C40.0301 24.8667 39.7739 24.8216 39.5773 24.8216C39.4566 24.8216 39.3511 24.8363 39.305 24.8967C39.2005 25.0178 39.3354 25.8178 39.1254 25.8178C38.9287 25.8178 38.4156 24.0373 37.2566 24.0373C37.0903 24.0373 36.9697 24.1732 36.9697 24.3995C36.9697 25.0026 37.5583 25.6966 38.1171 26.0288C38.37 26.1952 38.7933 26.361 38.7933 26.4523C38.7933 26.6324 37.8301 26.467 37.8301 26.7684C37.8301 27.0402 37.9508 27.4485 37.9508 27.689C37.9508 27.7646 37.9356 27.8544 37.8453 27.8544C37.6643 27.8544 37.2258 27.025 37.0148 27.025C36.8338 27.025 36.4413 27.5227 36.275 27.5227C36.2299 27.5227 36.1999 27.4775 36.1999 27.4328C36.1999 27.0854 36.7587 26.3011 36.7587 25.5312C36.7587 25.169 36.7131 24.3843 36.275 24.3843C35.913 24.3843 35.5049 24.9575 35.3238 25.5312C35.2188 25.8629 35.2939 27.1458 35.0521 27.1458C34.8259 27.1458 34.8862 26.2859 34.5836 26.2859C34.3611 26.2859 33.8779 26.6928 33.7116 26.6928C33.6812 26.6928 33.6508 26.6776 33.6508 26.6476C33.6508 26.467 34.0889 25.8781 34.0889 25.7574C34.0889 25.5312 33.0926 25.5012 33.0926 25.3201C33.0926 25.2141 33.485 25.139 33.8471 25.0782C34.6145 24.9423 35.7462 24.3843 35.7462 23.6C35.7462 22.725 34.901 22.3471 34.3455 21.985C34.0585 21.8039 33.7416 21.6537 33.7416 21.5329C33.7416 21.4117 34.1036 21.4117 34.2547 21.4117C34.4809 21.4117 34.7048 21.3965 34.7048 21.2159C34.7048 21.0795 34.6743 20.8086 34.6743 20.5971C34.6743 20.4459 34.6891 20.3252 34.7504 20.3252C34.9765 20.3252 35.2934 21.0643 35.445 21.0643C35.6859 21.0643 36.018 20.4607 36.2451 20.4607C36.3197 20.4607 36.3506 20.5063 36.3506 20.6418C36.3515 21.2002 36.0641 21.8338 36.0641 22.378Z" fill="#14213D"/>
<path d="M29.3074 26.5568C30.002 26.6475 30.1683 26.8885 30.1683 27.0853C30.1683 27.4175 29.8661 27.5226 29.5787 27.5226C29.3682 27.5226 29.1264 27.4774 28.8698 27.4774C28.5372 27.4774 28.206 27.553 27.9347 27.87C28.1305 27.8999 28.4175 28.0363 28.4175 28.3386C28.4175 29.2136 25.9891 28.4884 25.9891 30.7379C25.9891 31.9295 27.2263 33.228 29.096 33.228C30.0628 33.228 30.6815 32.911 30.6815 32.5479C30.6815 32.2617 30.1688 32.4571 30.1688 32.2157C30.1688 32.1101 30.3498 31.9134 30.3498 31.7466C30.3498 31.6738 30.2895 31.5369 30.1688 31.5369C29.8961 31.5369 29.3829 31.9733 28.3419 31.9733C27.5271 31.9733 26.7274 31.507 26.7274 30.8725C26.7274 30.737 26.7882 30.661 26.8785 30.661C26.9693 30.661 27.0895 30.7218 27.1954 30.7218C27.2862 30.7218 27.3009 30.661 27.3009 30.4955C27.3009 30.3292 27.3009 29.861 27.587 29.861C27.8744 29.861 28.4175 30.9176 30.5004 30.9176C31.1918 30.9176 32.5355 30.7826 33.0339 30.3292C33.0187 31.9894 31.7197 34.1772 29.0057 34.1772C26.1848 34.1772 24.6763 31.9134 24.6763 29.8306C24.6763 27.5226 26.5612 25.4255 29.1416 25.4255C29.8044 25.4255 30.3641 25.6513 30.3641 25.9384C30.3636 26.3314 29.3825 26.0895 29.3074 26.5568ZM33.939 27.3576C34.0445 27.5226 34.0901 27.6889 34.0901 27.8396C34.0901 28.2626 33.8031 28.6547 33.8031 29.0929C33.8031 29.5906 34.1808 29.9974 34.7515 29.9974C35.3702 29.9974 35.793 29.5007 35.793 28.9114C35.793 28.1114 35.0685 27.4327 33.939 27.3576ZM28.9449 28.3229C29.0951 28.4732 29.1411 28.6243 29.1411 28.7754C29.1411 29.0017 29.0356 29.2436 29.0356 29.5003C29.0356 29.861 29.3074 30.1785 29.6989 30.1785C30.1223 30.1785 30.4097 29.8458 30.4097 29.4551C30.4097 28.8814 29.8192 28.3229 28.9449 28.3229ZM30.95 25.7573C32.535 26.0591 33.3955 27.2516 33.3955 28.3686C33.3955 29.1385 32.9127 29.8463 32.067 29.8463C31.2968 29.8463 30.7413 29.3187 30.7413 28.4736C30.7413 27.84 31.236 27.1761 31.236 26.5268C31.236 26.2706 31.161 26.014 30.95 25.7573ZM31.7349 27.7645C31.7349 27.9755 31.886 28.1419 32.0974 28.1419C32.3383 28.1419 32.4899 27.9304 32.4899 27.6889C32.4899 27.3723 32.2029 26.9346 31.9311 26.9346C31.81 26.9346 31.8556 27.1157 31.8257 27.312C31.81 27.4622 31.7349 27.6433 31.7349 27.7645Z" fill="#14213D"/>
<path d="M15.0827 12.2374C15.5954 12.2374 16.1832 9.46073 16.1832 8.99257C16.1832 8.87185 16.1385 8.78107 16.033 8.78107C15.565 8.78107 14.9169 11.4223 14.9169 12.0112C14.9164 12.1167 14.9464 12.2374 15.0827 12.2374ZM18.7783 13.0673C19.1547 13.0673 19.5771 11.6181 19.5771 10.7127C19.5771 10.5164 19.5471 10.3058 19.4559 10.3058C19.139 10.3058 18.6111 11.7997 18.6111 12.6143C18.6116 12.9314 18.6876 13.0673 18.7783 13.0673ZM16.3181 11.7241C16.484 11.7241 16.6954 11.5421 17.0888 11.1057C17.1182 10.9094 17.1182 10.7279 17.1182 10.5016C17.1182 10.2003 16.9976 9.86806 16.817 9.86806C16.3637 9.86806 16.138 11.0753 16.138 11.3928C16.1385 11.573 16.2283 11.7241 16.3181 11.7241ZM18.3854 11.1057C18.3854 10.8486 18.3246 10.7883 18.2647 10.7883C18.1137 10.7883 17.9483 10.9698 17.7069 11.3771C17.7369 11.9204 17.8276 12.1618 17.9782 12.1618C18.1441 12.1618 18.3854 11.6333 18.3854 11.1057ZM19.5471 9.3248C20.543 9.3248 20.9949 10.1851 20.9949 11.1509C20.9949 11.573 20.8751 12.1923 20.6789 12.1923C20.4827 12.1923 20.5131 11.8448 20.4827 11.5278C20.4527 11.1205 20.3767 11.0302 20.2408 11.0302C19.9843 11.0302 19.8189 11.6333 19.8189 12.1923C19.8189 12.5388 19.8792 12.9314 20.1501 12.9314C20.3012 12.9314 20.4371 12.8558 20.5278 12.7655C20.4675 13.459 19.9539 14.0635 19.2302 14.0635C17.9027 14.0635 17.4047 12.5088 17.2546 11.6034C16.4549 12.4485 15.7161 13.0673 14.3881 13.0673C13.1518 13.0673 12.5935 12.1618 12.5935 11.302C12.5935 11.0449 12.6838 10.3814 13.0012 10.3814C13.378 10.3814 13.0463 11.6181 13.7851 11.6181C13.9666 11.6181 14.2974 11.467 14.4793 10.9698C14.5848 10.6675 14.6451 10.3514 14.6451 10.0791C14.6451 9.67131 14.5549 9.41557 14.2531 9.41557C13.9961 9.41557 13.6792 9.61095 13.5737 9.71693C13.9362 8.6304 14.811 8.07239 15.7751 8.07239C16.9681 8.07239 17.601 9.12851 17.601 10.3058C17.601 10.4712 17.5858 10.6523 17.5554 10.8187C18.0685 9.97358 18.7783 9.3248 19.5471 9.3248Z" fill="#14213D"/>
<path d="M16.7262 13.3835C16.0776 13.3835 16.0477 14.1696 16.0477 15.7529C15.5645 14.712 14.7658 13.595 13.8302 13.595C13.1969 13.595 12.956 14.018 12.956 14.7567C12.956 14.9078 12.9707 15.1345 13.0011 15.2695C13.0766 15.0138 13.318 14.9078 13.6193 14.9078C14.2687 14.9078 15.0527 15.4055 15.5654 16.0851C14.9777 15.9796 14.4042 15.8736 13.9219 15.8736C13.6197 15.8736 13.3484 15.904 13.1222 16.0096C12.6847 16.2054 12.0964 16.8546 12.0964 17.8356C12.0964 17.9868 12.1116 18.1522 12.142 18.3333C12.6699 17.156 14.0725 16.6279 14.9777 16.6279C15.1591 16.6279 15.2941 16.6431 15.4 16.6583C14.9321 17.0804 14.827 17.82 14.7962 18.3181C14.7819 18.5595 14.6907 18.5752 14.5244 18.5752C14.5244 19.0724 14.9173 19.8124 14.9173 20.1893C14.9173 20.3253 14.8418 20.446 14.7667 20.4764C14.7667 21.1404 15.4295 21.6233 15.4295 22.0454C15.4295 22.1509 15.4 22.2417 15.354 22.2873C15.4 22.5591 16.1297 23.0158 16.2241 23.2448C16.3402 23.5231 16.4705 23.5701 16.5461 23.5701C16.8027 23.5701 17.2089 23.2678 17.2089 22.996C17.2089 22.9057 17.1334 22.8001 17.074 22.7545C16.787 22.5439 16.6359 22.091 16.5152 21.7896C16.4093 21.7896 16.2729 21.7449 16.225 21.5671C16.1426 21.2547 16.1384 20.6727 16.0177 20.3253C15.8215 20.2801 15.7308 20.2045 15.7308 19.7972C15.7308 19.6009 15.8519 18.8309 15.8519 18.5591C15.7616 18.5591 15.641 18.4987 15.641 18.3176C15.641 17.8352 16.1242 17.4578 16.2591 16.8394C17.1191 17.4725 17.3296 18.1213 17.3296 18.6955C17.3296 18.9964 17.2845 19.2834 17.2241 19.5557C17.8579 19.2383 18.8082 18.7706 18.8082 17.82C18.8082 17.261 18.5517 16.6427 16.8469 16.4012C17.3748 16.2049 18.039 16.0999 18.5968 16.0999C19.5627 16.0999 20.1205 16.4012 20.2408 17.08C20.437 16.7786 20.5881 16.4312 20.5881 16.1146C20.5881 15.3746 19.969 14.8926 19.185 14.8926C18.2647 14.8926 17.4503 15.3746 16.5751 15.9639C16.9685 15.1493 17.2384 14.6664 17.7221 14.6664C17.7971 14.6664 17.8727 14.6816 17.9482 14.6968C17.7672 14.0333 17.0887 13.3835 16.7262 13.3835Z" fill="#14213D"/>
<path d="M42.1416 24.2635C42.897 24.2635 43.5004 25.2441 43.5004 26.3915C43.5004 27.6135 42.9265 28.9419 41.9034 29.8464C41.8882 27.8097 39.3962 28.4585 39.3962 26.9803C39.3962 26.3468 39.85 25.9238 40.3935 25.9238C40.8767 25.9238 41.2539 26.0597 41.5257 26.332C41.2539 26.0749 41.1181 25.7123 41.1181 25.3657C41.1181 24.7911 41.4806 24.2635 42.1416 24.2635Z" fill="#14213D"/>
<path d="M28.673 9.92853C29.0659 10.3059 29.4118 10.4713 29.8347 10.4713C30.0014 10.4713 30.1981 10.4266 30.3041 10.4266C30.44 10.4266 30.5298 10.4865 30.5298 10.5921C30.5298 10.7584 30.3787 11.0303 30.1981 11.1814C30.3787 11.2565 30.5754 11.2869 30.7868 11.2869C31.6436 11.2869 32.6247 10.7432 32.6247 9.38573C32.8067 9.62626 32.9121 10.1248 32.9121 10.3515C32.9121 11.9961 31.7039 12.6296 30.5901 12.6296C29.8656 12.6296 29.5026 12.3877 29.4114 12.3877C29.1253 12.3877 29.1405 12.9619 28.9443 12.9467C28.597 12.8863 28.281 12.1168 28.281 11.3021C28.2815 10.8188 28.4022 10.3059 28.673 9.92853ZM30.9499 8.82679C30.8292 8.6305 30.3787 8.52544 30.1682 8.52544C29.503 8.52544 29.0503 8.99268 28.96 9.41568C28.8996 9.26454 28.8545 9.08345 28.8545 8.90236C28.8545 8.23837 29.3073 7.42371 30.41 7.42371C31.3727 7.42371 31.75 7.93656 31.8863 7.93656C32.037 7.93656 32.188 7.78542 32.3092 7.78542C32.475 7.78542 32.475 8.04208 32.475 8.22363C32.475 8.82679 32.2028 9.86817 31.5238 10.2455C31.4027 9.98889 31.1613 9.70182 30.7716 9.5212C30.6661 9.47604 30.621 9.38573 30.621 9.29495C30.6205 9.12861 30.7712 8.91711 30.9499 8.82679Z" fill="#14213D"/>
<path d="M18.1891 5.53718C18.1891 6.06523 20.0744 8.64563 20.437 8.64563C20.7391 8.64563 20.9648 8.11757 20.9648 7.66416C20.9648 7.54435 20.9344 7.42409 20.875 7.33285C20.6032 6.95547 18.6875 5.4464 18.2646 5.4464C18.219 5.4464 18.1891 5.49202 18.1891 5.53718ZM7.10183 3.98295C7.10183 4.28522 5.95579 5.29572 5.54906 5.29572C5.39843 5.29572 5.35237 5.1151 5.35237 4.94922C5.35237 4.64786 5.48826 4.22486 5.65454 4.08847C5.84985 3.90738 6.30264 3.81799 6.64949 3.81799C6.86046 3.81799 7.10183 3.86223 7.10183 3.98295ZM20.875 4.85844C20.875 3.95254 18.4277 2.308 18.4005 1.59931C18.3978 1.53434 18.4332 1.46983 18.4881 1.41223C18.9072 0.969882 20.6479 0.647333 20.6479 0.270411C20.6479 0.0750387 20.2854 0.0750387 20.1044 0.0750387C18.7018 0.0750387 16.6502 0.587892 16.6502 1.08554C16.6502 1.59931 18.4904 2.85172 18.4904 3.47056C18.4904 3.63644 18.3849 3.6968 18.2186 3.6968C17.7064 3.6968 16.5898 3.07751 16.0619 3.07751C15.8206 3.07751 15.7294 3.24339 15.7294 3.48576C15.7294 4.20966 16.5893 5.58279 16.5893 5.98921C16.5893 6.03482 16.5741 6.09519 16.5138 6.09519C16.242 6.09519 14.961 4.58704 14.5078 4.58704C14.3424 4.58704 14.3268 4.81282 14.3268 5.14505V5.6579C14.3268 6.00487 14.3116 6.21637 14.1466 6.21637C13.7533 6.21637 13.5727 5.1151 13.1959 5.1151C12.8035 5.1151 12.7279 7.0762 12.3516 7.0762C11.9135 7.0762 12.2908 4.91834 11.8684 4.91834C11.4009 4.91834 10.8725 6.3523 10.5404 6.3523C10.4202 6.3523 10.3902 6.23112 10.3902 6.1256C10.3902 5.68831 10.6459 4.97917 10.6459 4.55709C10.6459 4.34513 10.5855 4.22486 10.4054 4.22486C9.93698 4.22486 8.91163 4.97917 8.51964 4.97917C8.45929 4.97917 8.38375 4.94922 8.38375 4.88839C8.38375 4.52714 10.0277 3.37978 10.0277 2.86693C10.0277 2.36836 7.76421 2.70105 7.76421 2.12691C7.76421 1.64447 9.37963 1.14636 9.37963 0.648254C9.37963 0.210509 7.46342 0.0151367 6.72458 0.0151367C5.83419 0.0151367 5.35191 0.119735 5.35191 0.376392C5.35191 0.76898 7.3736 0.890166 7.3736 1.23668C7.3736 1.5689 5.27637 2.45914 5.27637 2.97199C5.27637 3.42494 8.23267 3.00194 8.23267 3.47056C8.23267 3.98295 5.65408 6.20071 5.65408 6.94026C5.65408 7.10661 5.77476 7.18218 5.94013 7.18218C6.72458 7.18218 8.76008 5.68831 9.31882 5.68831C9.51505 5.68831 9.53025 5.9293 9.53025 6.1408C9.53025 6.53339 9.39483 7.13656 9.39483 7.57476C9.39483 7.92127 9.48511 8.16272 9.78636 8.16272C10.3456 8.16272 10.8573 7.21213 11.2355 7.21213C11.7178 7.21213 11.4313 10.0036 12.1554 10.0036C12.7735 10.0036 13.0296 6.98588 13.4221 6.98588C13.8145 6.98588 14.1319 7.86091 14.4935 7.86091C14.9454 7.86091 14.7344 6.3371 15.2176 6.3371C15.745 6.3371 17.2536 8.14798 17.9325 8.14798C18.1435 8.14798 18.2186 7.98164 18.2186 7.77014C18.2186 6.97022 17.1029 5.16025 17.1029 4.58704C17.1029 4.43636 17.1476 4.39074 17.3135 4.39074C17.9017 4.39074 19.6221 5.20541 20.436 5.20541C20.7097 5.20541 20.875 5.05473 20.875 4.85844ZM19.3057 1.87072C19.3057 2.14212 20.2559 2.731 20.694 2.731C20.9501 2.731 21.0256 2.38357 21.0256 2.02139C21.0256 1.5689 20.8303 1.5537 20.4374 1.5537C19.9395 1.5537 19.3057 1.68963 19.3057 1.87072ZM15.7607 0.331235C15.7607 0.24046 15.3083 0.149686 14.6902 0.149686C13.7095 0.149686 13.8454 0.965735 13.0914 0.965735C12.3069 0.965735 12.5022 0.119735 11.5068 0.119735C10.9034 0.119735 10.346 0.225715 10.346 0.361186C10.346 0.542735 11.0545 0.467166 11.0545 0.965735C11.0545 1.49333 9.53071 1.64447 9.53071 1.96149C9.53071 2.06701 9.65094 2.11217 9.80202 2.11217C10.1346 2.11217 10.6615 1.96149 11.0393 1.96149C11.2507 1.96149 11.4469 2.00619 11.4469 2.20248C11.4469 2.57986 10.6316 3.25906 10.6316 3.56087C10.6316 3.65165 10.7067 3.68206 10.7822 3.68206C11.0844 3.68206 11.5975 2.91209 12.0798 2.91209C12.8795 2.91209 12.352 4.61699 12.7887 4.61699C13.2411 4.61699 13.0453 2.94158 13.6939 2.94158C14.2227 2.94158 14.6142 4.10368 14.9762 4.10368C15.067 4.10368 15.1421 4.02857 15.1421 3.92259C15.1421 3.60649 14.6897 2.95678 14.6897 2.53471C14.6897 2.27805 14.8708 2.15686 15.1121 2.15686C15.4585 2.15686 15.9265 2.36836 16.1822 2.36836C16.2724 2.36836 16.3632 2.33841 16.3632 2.23289C16.3632 1.87072 15.0218 1.47859 15.0218 1.01089C15.0223 0.542735 15.7607 0.542735 15.7607 0.331235Z" fill="#14213D"/>
<path d="M42.5039 2.77682C42.5039 4.11908 41.526 5.14525 39.759 5.43186C39.9557 5.4466 40.1367 5.4466 40.3182 5.4466C42.3832 5.4466 43.1386 4.51167 43.1386 3.72742C43.1386 3.28921 42.8968 2.89754 42.5039 2.77682ZM39.9557 4.30017C39.9557 3.22885 37.3932 2.95698 37.3932 2.71599C37.3932 2.52016 38.8239 2.18747 39.5632 2.17227C38.4319 0.724024 36.8197 0.875161 36.8197 0.618504C36.8197 0.467367 38.027 0.165092 39.1418 0.165092C40.0768 0.165092 40.952 0.376592 40.952 1.08574C40.952 1.47879 40.6351 1.88658 40.6351 2.48929C40.6351 2.82151 40.8 3.10812 41.239 3.10812C41.7079 3.10812 41.8125 2.61047 41.8125 2.08149C41.8125 1.64467 41.7374 1.31244 41.7374 1.10094C41.7374 0.467366 42.1718 0.0452881 42.7908 0.0452881C43.304 0.0452881 43.4251 0.270612 44.1801 0.270612C43.772 0.512984 43.6213 0.950729 43.6213 1.16131C43.6213 1.79581 44.0299 2.23309 44.0299 3.53112C44.0299 5.9143 41.7977 6.75938 39.0662 6.75938C38.3154 6.75938 37.5144 6.69901 36.729 6.57875C36.6088 6.56354 36.5784 6.53359 36.5784 6.45802C36.5784 6.26173 37.6507 6.15575 37.6507 5.19087C37.6507 4.81302 37.5296 4.45131 37.5296 4.31584C37.5296 4.24027 37.5899 4.19465 37.6507 4.19465C37.8769 4.19465 38.3306 5.06968 39.1726 5.06968C39.3965 5.06968 39.9557 4.99411 39.9557 4.30017ZM42.4136 0.965935C42.4136 1.17651 42.5794 1.3424 42.7908 1.3424C43.0023 1.3424 43.1686 1.17651 43.1686 0.965935C43.1686 0.754435 43.0023 0.588092 42.7908 0.588092C42.5794 0.588092 42.4136 0.754435 42.4136 0.965935Z" fill="#14213D"/>
<path d="M41.0732 14.9077C41.0732 14.5911 40.2726 14.5612 40.1975 13.6705C40.1819 13.535 40.1367 13.294 39.9705 13.294C39.6992 13.294 39.9101 14.1239 39.6084 14.1239C38.9147 14.1239 38.6885 12.7655 38.432 12.7655C38.3712 12.7655 38.2993 12.8107 38.2993 12.9918C38.2993 13.1581 38.3297 13.2636 38.3297 13.459C38.3297 13.6557 38.2836 13.7917 38.1031 13.7917C37.6954 13.7917 37.3329 12.8406 36.9856 12.8406C36.9101 12.8406 36.835 12.8862 36.835 12.9618C36.835 13.1429 37.1362 13.4742 37.1362 13.6405C37.1362 14.0032 36.1551 13.8064 36.1551 14.1087C36.1551 14.2446 36.2905 14.2893 36.472 14.2893C36.7894 14.2893 37.2878 14.1543 37.5443 14.1543C37.6954 14.1543 37.9216 14.1843 37.9216 14.3796C37.9216 14.5911 37.3781 14.8625 37.3781 15.0588C37.3781 15.1496 37.4683 15.1943 37.5439 15.1943C37.9515 15.1943 38.6729 14.4856 39.186 14.4856C39.2763 14.4856 39.5025 14.5308 39.5025 14.6667C39.5025 14.8625 38.9898 15.209 38.9898 15.4961C38.9898 15.5717 39.0358 15.662 39.1261 15.662C39.3961 15.662 39.7586 14.9533 40.2722 14.9533C40.4684 14.9533 40.7554 15.0289 40.9069 15.0289C41.0281 15.0289 41.0732 14.9533 41.0732 14.9077ZM41.4656 22.2263C41.7075 21.4725 42.0097 20.9435 42.5039 20.1288C42.0097 19.8731 40.6955 19.3289 40.6955 18.4387C40.6955 17.3973 41.9931 16.5826 42.2621 16.5826C42.3832 16.5826 42.4132 16.6886 42.4132 16.8849C42.4132 17.4277 42.1566 18.3028 42.1566 18.7709C42.1566 19.193 42.4284 19.6012 42.6697 19.6012C42.9263 19.6012 43.6357 18.6958 43.6357 17.8051C43.6357 16.2053 42.2317 15.7228 41.7973 15.7228C41.3896 15.7228 40.6499 16.3864 38.9142 16.3864C35.6719 16.3864 34.9321 13.1733 34.9321 11.7693C34.9321 11.7089 34.9464 11.6937 34.9616 11.6937C35.0372 11.6937 35.355 12.0868 36.3808 12.0868C36.9091 12.0868 37.3923 11.9504 38.1625 11.9504C39.9695 11.9504 40.7701 13.2037 41.8876 14.8022C42.5633 15.2243 44.1792 15.9039 44.1792 17.8203C44.1792 19.5105 42.3828 20.4459 41.9479 22.2567C42.6389 22.1816 43.047 20.9435 43.7563 20.9435C44.1189 20.9435 44.2847 21.2306 44.2847 21.684C44.2847 22.3471 43.907 23.3437 43.1824 23.9621C43.1971 23.9017 43.1971 23.8257 43.1971 23.7354C43.1971 23.3133 43.0318 22.7102 42.5477 22.7102C41.7964 22.7102 41.555 23.5248 41.1326 24.2031C40.6946 22.6645 40.1059 21.2757 39.0501 20.4307C37.9819 19.5708 36.1394 20.0381 36.1394 18.4691C36.1394 18.0461 36.4117 17.4429 36.4117 16.96C36.4117 16.7941 36.3813 16.643 36.2901 16.5223C37.7396 17.066 37.226 18.0309 38.1178 19.0271C38.6729 19.6616 40.2123 20.2648 41.1027 22.8751C41.1174 22.8 41.1326 22.6042 41.1326 22.4682C41.1326 20.2348 38.1772 18.0461 37.9207 17.1407C39.6374 17.3369 39.9391 17.7599 40.7544 20.0233C40.9216 20.4915 41.4656 21.6536 41.4656 22.2263Z" fill="#14213D"/>
<path d="M33.2143 6.2616C32.1571 6.2616 31.4629 5.734 31.4629 5.46168C31.4629 5.32575 31.5532 5.23589 31.6748 5.23589C32.0065 5.23589 32.7311 5.74828 32.972 5.74828C33.0332 5.74828 33.0779 5.71879 33.0779 5.62802C33.0779 5.35616 32.8213 4.90367 32.8213 4.67788C32.8213 4.61706 32.8669 4.57236 32.9572 4.57236C33.3644 4.57236 33.9683 4.73825 34.2861 4.73825C34.3916 4.73825 34.4216 4.67788 34.4216 4.61706C34.4216 4.28529 33.44 3.63651 33.44 3.44022C33.44 3.25913 34.6597 2.9868 34.6597 2.70112C34.6597 2.39884 33.0014 2.61034 33.0014 2.32327C33.0014 2.11224 33.3188 1.75006 33.3188 1.58418C33.3188 1.50861 33.258 1.47866 33.153 1.47866C33.0171 1.47866 32.2925 1.76526 31.9904 1.76526C31.8397 1.76526 31.6583 1.73531 31.6583 1.52335C31.6583 1.17638 32.2469 0.799461 33.1682 0.799461C34.6592 0.799461 35.5505 1.82563 35.5505 3.54574C35.5515 5.71879 34.0296 6.2616 33.2143 6.2616ZM30.2736 3.39506C30.2736 3.22872 29.684 2.91216 29.684 2.73107C29.684 2.70112 29.7135 2.68591 29.7591 2.68591C29.9258 2.68591 30.2128 2.74627 30.4399 2.74627C30.6361 2.74627 30.6661 1.9012 30.8144 1.9012C30.9199 1.9012 31.1004 2.70112 31.2676 2.70112C31.4634 2.70112 31.8255 2.47441 31.9765 2.47441C32.0065 2.47441 32.0369 2.48916 32.0369 2.52003C32.0369 2.62555 31.6596 3.03242 31.6596 3.15315C31.6596 3.28908 32.5053 3.45542 32.5053 3.57615C32.5053 3.72728 31.6444 3.71208 31.6444 3.84801C31.6444 3.95261 31.9618 4.37561 31.9618 4.51154C31.9618 4.54195 31.9461 4.55716 31.9162 4.55716C31.7951 4.55716 31.3275 4.3452 31.1916 4.3452C31.0254 4.3452 30.7568 4.96403 30.6209 4.96403C30.5758 4.96403 30.5458 4.90367 30.5458 4.8281L30.5154 4.22493C30.5154 4.16457 30.486 4.10375 30.41 4.10375C30.2285 4.10375 29.8812 4.08854 29.7748 4.08854C29.6992 4.08854 29.6693 4.07379 29.6693 4.04338C29.6688 3.92266 30.2736 3.50058 30.2736 3.39506ZM29.8346 5.86855C30.0769 5.86855 30.1221 6.45789 30.1681 6.8044C30.1981 6.98595 30.2285 7.0007 30.304 7.0007C30.4855 7.0007 30.7715 6.30676 30.9655 6.30676C31.2515 6.30676 32.0221 7.10668 33.305 7.10668C35.1291 7.10668 36.85 5.82339 36.85 3.56094C36.85 1.37268 35.3092 0.0898529 33.1838 0.0898529C32.1732 0.0898529 31.4325 0.587961 31.0401 0.587961C30.8019 0.603167 30.4399 0 30.258 0C30.1829 0 30.1073 0.149755 30.1073 0.406873C30.1073 0.573216 30.1073 1.10081 29.9258 1.10081C29.5629 1.10081 28.1607 0.0603628 28.1607 0.436824C28.1607 0.784255 29.0949 1.84083 29.0949 2.11224C29.0949 2.38364 28.1755 2.64076 28.1755 2.82138C28.1755 3.15315 29.1557 3.21351 29.1557 3.63651C29.1557 4.05859 28.1294 4.39081 28.1294 4.70783C28.1294 4.96403 29.1557 4.7834 29.1557 5.09996C29.1557 5.41652 28.4016 6.4731 28.4016 6.77399C28.4016 6.85002 28.4164 6.85002 28.4762 6.85002C28.7632 6.85002 29.6232 5.86855 29.8346 5.86855Z" fill="#14213D"/>
<path d="M23.0019 32.367C23.0019 32.5029 22.9563 32.6541 22.8356 32.8043C22.6707 32.5029 22.2022 32.3518 21.9908 32.3523C20.4371 32.3523 21.0253 34.6009 19.3661 34.6009C18.6724 34.6009 18.6116 34.5101 18.356 34.5101C18.25 34.5101 18.1897 34.5557 18.1897 34.646C18.1897 35.0391 18.748 36.004 20.3017 36.004C21.8554 36.004 23.3492 35.0538 23.3492 33.8756C23.3492 33.6793 23.304 33.4697 23.2133 33.2582C23.2736 33.1674 23.4252 33.107 23.5606 33.107C23.8015 33.107 23.9374 33.3798 24.1636 33.3798C24.4054 33.3798 24.5864 33.1978 24.5864 32.9568C24.5864 32.7596 24.4809 32.6246 24.3004 32.5329C24.4211 32.443 24.5113 32.2919 24.5113 32.126C24.5113 31.8684 24.3299 31.6284 24.0277 31.6284C23.8918 31.6284 23.802 31.6744 23.6965 31.7777C23.667 31.5076 23.5155 31.251 23.2285 31.251C23.0023 31.251 22.8356 31.4164 22.8356 31.674C22.8356 31.9136 23.0019 32.1108 23.0019 32.367Z" fill="#14213D"/>
<path d="M14.7354 29.5612C15.9422 29.8612 16.5457 30.5104 16.6659 31.2804C16.7866 32.0195 16.9372 32.624 17.2237 32.9249C17.6009 33.3484 18.3403 33.7235 18.9893 33.7235C19.5324 33.7235 19.969 33.5442 19.969 33.0457C19.969 32.5019 19.2302 31.2799 18.144 31.2799C18.0385 31.2799 17.9027 31.2956 17.7516 31.2956C17.6157 31.2956 17.4195 31.2657 17.2992 31.1597C17.0583 30.9477 16.9823 29.816 16.53 29.1373C16.0325 28.3825 15.4894 28.171 14.7506 28.171C14.2232 28.171 13.634 28.4572 13.634 28.8802C13.634 29.1382 13.7699 29.3188 14.7354 29.5612ZM18.9441 32.9406C18.4909 32.9406 17.8124 32.4568 17.8124 32.1849C17.8124 31.9582 18.0238 31.8375 18.1887 31.8375C18.5664 31.8375 19.2445 32.3066 19.2445 32.6987C19.2449 32.8042 19.1694 32.9406 18.9441 32.9406Z" fill="#14213D"/>
<path d="M17.5559 21.1855C17.5559 20.2197 19.8493 19.7068 19.8493 18.5143C19.8493 18.318 19.7738 17.9715 19.6379 17.7148C20.4366 18.1521 21.0253 18.8921 21.0253 19.4953C21.0253 20.5367 19.9396 21.0196 19.9396 21.6688C19.9396 22.4231 21.1009 22.5439 21.1009 23.4793C21.1009 24.2483 19.9995 25.139 19.9995 26.1348C19.9995 26.9043 20.543 27.5374 21.3717 27.6434C21.1004 27.7037 20.8595 27.7489 20.6029 27.7489C19.0787 27.7489 17.5103 26.4969 17.5103 25.0026C17.5103 24.2635 17.8272 23.6156 18.309 23.1475C18.7323 23.5097 19.1543 23.7507 19.426 23.7507C19.6669 23.7507 19.7733 23.6304 19.7733 23.4493C19.7738 22.8904 17.5559 22.378 17.5559 21.1855ZM22.368 28.8059C21.8508 29.0428 21.6444 29.0022 21.6444 29.5307C21.6444 29.7266 21.5988 29.9818 21.5988 30.1182C21.5988 30.2993 21.6287 30.4053 21.8397 30.4053C22.3832 30.4053 23.2432 29.4851 23.2432 28.6999C23.2432 28.488 23.1221 28.3991 22.9862 28.3991C22.8655 28.3991 22.7306 28.6396 22.368 28.8059ZM22.3077 27.7189C22.3077 27.0402 20.9046 27.025 20.9046 25.9988C20.9046 25.7417 21.07 25.3049 21.4026 24.8363C21.5389 25.621 21.8544 26.0288 22.5343 26.2859C23.8761 26.7831 24.0576 27.5374 24.0576 28.3382C24.0576 29.6966 23.1074 31.3863 20.6637 31.3863C18.7024 31.3863 17.2993 29.6353 17.2993 28.1567C17.2993 27.7489 17.4048 27.2969 17.6614 27.2969C17.888 27.2969 17.9631 27.4775 18.1441 27.6581C18.8235 28.3382 19.5624 28.5184 20.6333 28.5184C21.5988 28.5189 22.3077 28.1267 22.3077 27.7189Z" fill="#14213D"/>
<path d="M11.6252 28.046C11.6621 28.3612 11.4368 28.6455 11.1222 28.6823C10.8072 28.7192 10.5216 28.4934 10.4856 28.1787C10.4488 27.863 10.674 27.5778 10.9891 27.541C11.3042 27.5041 11.5888 27.7303 11.6252 28.046ZM8.80621 28.6395C8.87023 29.1546 9.35067 29.5454 9.89282 29.485C10.0886 29.4634 10.2701 29.4099 10.3912 29.3343C10.5119 29.8168 10.9168 30.1273 11.464 30.0555C12.0195 29.9831 12.3972 29.5454 12.3374 28.9869C12.3217 28.8367 12.2918 28.745 12.2471 28.6395C12.2471 28.6395 12.3203 28.6316 12.3756 28.6215C12.9205 28.5183 13.2876 28.081 13.242 27.5529C13.1822 27.0097 12.6948 26.6065 12.1877 26.6692C11.991 26.6931 11.8095 26.7682 11.6883 26.8737C11.552 26.4217 11.1268 26.0287 10.5465 26.1245C10.0218 26.2116 9.67495 26.6567 9.72746 27.2212C9.73621 27.3129 9.7574 27.4175 9.803 27.5225C9.803 27.5225 9.7141 27.5359 9.65284 27.5446C9.21248 27.6101 8.73481 28.0534 8.80621 28.6395Z" fill="#14213D"/>
</g>
<defs>
<clipPath id="clip0_1830_2941">
<rect width="49.5482" height="54.8333" fill="white" transform="translate(0.768311)"/>
</clipPath>
</defs>
</svg>
