<svg width="123" height="18" viewBox="0 0 123 18" fill="none" xmlns="http://www.w3.org/2000/svg">
<path d="M39.5413 6.71657C39.0064 7.42668 38.1115 8.66117 37.5669 9.3822C37.2904 9.74887 36.791 10.4146 38.4465 10.4146C40.1981 10.4146 47.1626 10.4146 47.1626 10.4146C47.1626 10.4146 48.5673 8.541 49.745 6.97398C51.3469 4.8423 49.8836 0.40686 44.1567 0.40686C39.0308 0.40686 21.6028 0.40686 21.6028 0.40686L17.6922 5.6159C17.6922 5.6159 37.9652 5.6159 39.0057 5.6159C40.0818 5.6159 40.0671 6.01739 39.5413 6.71657ZM33.1381 11.6996C31.4827 11.6996 31.982 11.0325 32.2585 10.6659C32.8032 9.94483 33.7127 8.72331 34.2476 8.0132C34.7741 7.31402 34.788 6.91253 33.7106 6.91253C32.6708 6.91253 23.9631 6.91253 23.9631 6.91253L16.1092 17.3771C16.1092 17.3771 30.1364 17.3771 35.2623 17.3771C41.5882 17.3771 45.1101 13.1587 46.1959 11.7003C46.1959 11.6996 34.889 11.6996 33.1381 11.6996ZM45.5977 17.3771H56.8335L61.093 11.6989L49.8585 11.7003C49.8551 11.6996 45.5977 17.3771 45.5977 17.3771ZM74.5874 0.40686L70.2778 6.14575H65.2634L69.5709 0.40686H58.3385L50.8238 10.4146H78.3058L85.8184 0.40686H74.5874ZM61.8479 17.3771H73.0796L77.3412 11.7003H66.1095C66.1054 11.6996 61.8479 17.3771 61.8479 17.3771ZM0.0769043 13.9392V15.145H15.7248L16.6288 13.9392H0.0769043ZM18.3107 11.6996H0.0769043V12.9041H17.4046L18.3107 11.6996ZM0.0769043 17.3771H14.0484L14.9482 16.1781H0.0769043V17.3771ZM105.988 15.1443H122.477V13.9385H106.893L105.988 15.1443ZM104.313 17.3771H122.477V16.1781H105.212L104.313 17.3771ZM108.572 11.6996L107.669 12.9054H122.477V11.6996H108.572ZM93.8603 10.4146L101.374 0.40686H89.4783C89.4741 0.40686 81.9587 10.4146 81.9587 10.4146H93.8603ZM80.9955 11.6996C80.9955 11.6996 80.1744 12.7996 79.7753 13.3294C78.365 15.1976 79.6123 17.3771 84.2159 17.3771C89.534 17.3771 102.255 17.3771 102.255 17.3771L106.516 11.7003H80.9955V11.6996Z" fill="#14213D"/>
</svg>
