<svg width="168" height="33" viewBox="0 0 168 33" fill="none" xmlns="http://www.w3.org/2000/svg">
<g clip-path="url(#clip0_1830_2971)">
<path fill-rule="evenodd" clip-rule="evenodd" d="M151.614 25.0093H157.966V0.097168H151.614V25.0093Z" fill="#14213D"/>
<path fill-rule="evenodd" clip-rule="evenodd" d="M167.308 0.097168V25.0093H160.956V0.097168H167.308Z" fill="#14213D"/>
<path fill-rule="evenodd" clip-rule="evenodd" d="M13.6306 9.77307H8.49274V0.097168H0.0852051V25.0093H8.49274V12.6567H13.6306V25.0093H22.039V0.097168H13.6306V9.77307Z" fill="#14213D"/>
<path fill-rule="evenodd" clip-rule="evenodd" d="M53.1014 9.36127L52.5872 7.71468H45.674V25.0093H52.5872V14.6119C52.5872 12.3468 53.8956 11.1119 55.0164 11.1119C55.9504 11.1119 57.1646 11.3176 57.1646 13.5827V25.0093H64.0778V13.7887C64.0778 7.50896 57.6796 5.03895 53.1014 9.36127Z" fill="#14213D"/>
<path fill-rule="evenodd" clip-rule="evenodd" d="M124.102 17.7516L120.879 7.71497H116.161L112.937 18.1633L109.574 7.71497H102.988H102.941H100.326L97.009 16.5157L92.3381 7.71497H84.4438L93.7392 25.2153L92.5251 28.5084C92.1042 29.5386 91.0977 29.5896 90.9007 28.6114C90.9007 26.8427 89.5991 25.4096 87.9939 25.4096C86.3885 25.4096 85.0872 26.8427 85.0872 28.6114C85.0985 30.4648 86.7798 32.8838 90.0958 32.7291C93.4128 32.5751 94.8137 29.5386 95.2808 28.2517L102.963 7.78239L108.5 25.0095H113.545L116.628 15.0748L119.804 25.0095H124.568L129.94 7.71497H127.184L124.102 17.7516Z" fill="#14213D"/>
<path fill-rule="evenodd" clip-rule="evenodd" d="M33.9494 6.83569C28.6598 6.83569 24.3723 11.1697 24.3723 16.5156C24.3723 21.8633 28.6598 26.1973 33.9494 26.1973C39.2401 26.1973 43.5285 21.8633 43.5285 16.5156C43.5285 11.1697 39.2401 6.83569 33.9494 6.83569ZM36.3325 21.0447C36.3325 22.4951 35.2657 23.6705 33.9494 23.6705C32.635 23.6705 31.5682 22.4951 31.5682 21.0447V11.9873C31.5682 10.5379 32.635 9.36357 33.9494 9.36357C35.2657 9.36357 36.3325 10.5379 36.3325 11.9873V21.0447Z" fill="#14213D"/>
<path fill-rule="evenodd" clip-rule="evenodd" d="M85.211 17.9055C85.2616 17.5004 85.2876 16.935 85.2876 16.5156C85.2876 11.1697 80.9993 6.83569 75.7097 6.83569C70.4191 6.83569 66.1306 11.1697 66.1306 16.5156C66.1306 21.8633 70.4191 26.1973 75.7097 26.1973C79.3443 26.1973 82.5059 24.1504 84.1294 21.1352L82.0135 20.2725C80.7348 22.4258 78.3902 23.8677 75.7097 23.8677C74.3934 23.8677 73.3266 22.4951 73.3266 21.0447V17.9063L85.211 17.9055ZM73.3266 11.9873C73.3266 10.5379 74.3934 9.36357 75.7097 9.36357C77.025 9.36357 78.0917 10.5379 78.0917 11.9873V15.4355H73.3266V11.9873Z" fill="#14213D"/>
<path fill-rule="evenodd" clip-rule="evenodd" d="M149.204 17.9055C149.255 17.5004 149.281 16.935 149.281 16.5156C149.281 11.1697 144.993 6.83569 139.702 6.83569C134.413 6.83569 130.124 11.1697 130.124 16.5156C130.124 21.8633 134.413 26.1973 139.702 26.1973C143.338 26.1973 146.499 24.1504 148.123 21.1352L146.007 20.2725C144.728 22.4258 142.384 23.8677 139.702 23.8677C138.387 23.8677 137.32 22.4951 137.32 21.0447V17.9063L149.204 17.9055ZM137.32 11.9873C137.32 10.5379 138.387 9.36357 139.702 9.36357C141.019 9.36357 142.085 10.5379 142.085 11.9873V15.4355H137.32V11.9873Z" fill="#14213D"/>
</g>
<defs>
<clipPath id="clip0_1830_2971">
<rect width="167.223" height="32.6389" fill="white" transform="translate(0.0852051 0.097168)"/>
</clipPath>
</defs>
</svg>
